<svg xmlns="http://www.w3.org/2000/svg" xmlns:xlink="http://www.w3.org/1999/xlink" width="2000" zoomAndPan="magnify" viewBox="0 0 1500 1499.999933" height="2000" preserveAspectRatio="xMidYMid meet" version="1.0"><defs><g/></defs><g fill="#d9b627" fill-opacity="1"><g transform="translate(-27.429519, 1300.858326)"><g><path d="M 32.359375 -1007.796875 C 41.140625 -1020.578125 51.722656 -1024.367188 64.109375 -1019.171875 C 76.492188 -1013.984375 88.078125 -1005.992188 98.859375 -995.203125 C 109.648438 -984.421875 118.238281 -973.640625 124.625 -962.859375 C 131.019531 -952.078125 132.617188 -947.082031 129.421875 -947.875 L 569.203125 -196.53125 C 571.597656 -208.507812 573.796875 -227.878906 575.796875 -254.640625 C 577.796875 -281.410156 579.191406 -312.96875 579.984375 -349.3125 C 580.785156 -385.664062 580.988281 -425.410156 580.59375 -468.546875 C 580.195312 -511.691406 579.398438 -554.832031 578.203125 -597.96875 C 577.003906 -641.101562 575.203125 -683.441406 572.796875 -724.984375 C 570.398438 -766.535156 567.601562 -803.882812 564.40625 -837.03125 C 561.21875 -870.1875 557.625 -897.75 553.625 -919.71875 C 549.632812 -941.6875 544.84375 -955.066406 539.25 -959.859375 C 539.25 -972.640625 541.644531 -984.820312 546.4375 -996.40625 C 551.226562 -1008 560.816406 -1013.796875 575.203125 -1013.796875 C 588.785156 -1013.796875 599.96875 -1005.804688 608.75 -989.828125 C 617.539062 -973.847656 624.332031 -955.867188 629.125 -935.890625 C 633.914062 -915.921875 637.3125 -896.347656 639.3125 -877.171875 C 641.3125 -858.003906 642.3125 -845.625 642.3125 -840.03125 C 643.101562 -824.050781 643.695312 -798.6875 644.09375 -763.9375 C 644.5 -729.1875 644.898438 -689.441406 645.296875 -644.703125 C 645.703125 -599.960938 646.101562 -553.023438 646.5 -503.890625 C 646.894531 -454.765625 647.289062 -407.832031 647.6875 -363.09375 C 648.09375 -318.351562 648.296875 -278.40625 648.296875 -243.25 C 648.296875 -208.101562 648.695312 -182.539062 649.5 -166.5625 C 650.289062 -144.195312 653.285156 -124.625 658.484375 -107.84375 C 663.679688 -91.070312 666.28125 -71.898438 666.28125 -50.328125 C 666.28125 -32.753906 659.6875 -19.570312 646.5 -10.78125 C 633.320312 -2 618.742188 2.390625 602.765625 2.390625 C 593.972656 2.390625 586.179688 1.191406 579.390625 -1.203125 C 572.597656 -3.597656 567.203125 -7.585938 563.203125 -13.171875 C 559.210938 -18.765625 557.019531 -26.15625 556.625 -35.34375 C 556.226562 -44.53125 558.023438 -55.914062 562.015625 -69.5 C 547.640625 -86.28125 529.265625 -114.441406 506.890625 -153.984375 C 484.523438 -193.523438 459.957031 -238.257812 433.1875 -288.1875 C 406.425781 -338.125 378.46875 -390.65625 349.3125 -445.78125 C 320.15625 -500.90625 292.191406 -553.03125 265.421875 -602.15625 C 238.660156 -651.289062 213.695312 -694.234375 190.53125 -730.984375 C 167.363281 -767.734375 148.59375 -792.898438 134.21875 -806.484375 C 130.21875 -754.554688 129.015625 -694.4375 130.609375 -626.125 C 132.210938 -557.820312 135.007812 -487.921875 139 -416.421875 C 143 -344.921875 147.195312 -275.21875 151.59375 -207.3125 C 155.988281 -139.40625 158.1875 -79.488281 158.1875 -27.5625 C 158.1875 -10.78125 153.390625 -0.195312 143.796875 4.1875 C 134.210938 8.582031 124.226562 9.582031 113.84375 7.1875 C 103.457031 4.789062 94.664062 0.597656 87.46875 -5.390625 C 80.28125 -11.378906 79.085938 -15.972656 83.890625 -19.171875 Z M 32.359375 -1007.796875 "/></g></g></g><g fill="#d9b627" fill-opacity="1"><g transform="translate(592.638147, 1300.858326)"><g><path d="M 124.625 -35.953125 C 125.425781 -40.742188 136.8125 -46.734375 158.78125 -53.921875 C 180.75 -61.109375 208.109375 -69.695312 240.859375 -79.6875 C 273.617188 -89.675781 309.96875 -101.257812 349.90625 -114.4375 C 389.851562 -127.625 428.398438 -142.601562 465.546875 -159.375 C 502.703125 -176.15625 536.054688 -194.726562 565.609375 -215.09375 C 595.171875 -235.46875 616.742188 -258.039062 630.328125 -282.8125 C 630.328125 -295.59375 621.535156 -305.578125 603.953125 -312.765625 C 586.378906 -319.953125 563.210938 -325.941406 534.453125 -330.734375 C 505.691406 -335.535156 472.9375 -339.53125 436.1875 -342.71875 C 399.4375 -345.914062 361.6875 -350.3125 322.9375 -355.90625 C 284.195312 -361.5 246.453125 -368.6875 209.703125 -377.46875 C 172.953125 -386.257812 140.195312 -398.441406 111.4375 -414.015625 C 82.6875 -429.597656 59.519531 -449.171875 41.9375 -472.734375 C 24.363281 -496.304688 15.578125 -525.664062 15.578125 -560.8125 C 15.578125 -595.164062 23.363281 -630.117188 38.9375 -665.671875 C 54.519531 -701.222656 75.09375 -735.773438 100.65625 -769.328125 C 126.21875 -802.878906 155.578125 -834.4375 188.734375 -864 C 221.890625 -893.5625 256.441406 -919.523438 292.390625 -941.890625 C 328.335938 -964.253906 363.882812 -981.828125 399.03125 -994.609375 C 434.1875 -1007.398438 466.945312 -1013.796875 497.3125 -1013.796875 C 505.300781 -1013.796875 513.6875 -1013.992188 522.46875 -1014.390625 C 531.257812 -1014.785156 539.050781 -1014.1875 545.84375 -1012.59375 C 552.632812 -1011 558.222656 -1007.601562 562.609375 -1002.40625 C 567.003906 -997.207031 569.203125 -989.414062 569.203125 -979.03125 C 569.203125 -953.46875 560.8125 -935.09375 544.03125 -923.90625 C 527.257812 -912.726562 506.890625 -907.140625 482.921875 -907.140625 L 431.40625 -923.921875 C 411.425781 -923.921875 388.851562 -918.125 363.6875 -906.53125 C 338.53125 -894.945312 313.164062 -879.367188 287.59375 -859.796875 C 262.03125 -840.222656 237.066406 -817.851562 212.703125 -792.6875 C 188.335938 -767.53125 166.765625 -741.566406 147.984375 -714.796875 C 129.210938 -688.035156 114.035156 -661.273438 102.453125 -634.515625 C 90.867188 -607.753906 85.078125 -583.585938 85.078125 -562.015625 C 85.078125 -534.859375 93.863281 -512.691406 111.4375 -495.515625 C 129.019531 -478.335938 152.191406 -464.554688 180.953125 -454.171875 C 209.710938 -443.785156 242.664062 -435.992188 279.8125 -430.796875 C 316.957031 -425.609375 354.703125 -421.015625 393.046875 -417.015625 C 431.398438 -413.023438 469.148438 -408.632812 506.296875 -403.84375 C 543.441406 -399.050781 576.394531 -392.457031 605.15625 -384.0625 C 633.914062 -375.675781 657.082031 -364.09375 674.65625 -349.3125 C 692.238281 -334.53125 701.03125 -314.757812 701.03125 -290 C 701.03125 -266.03125 691.441406 -242.0625 672.265625 -218.09375 C 653.085938 -194.125 627.921875 -171.15625 596.765625 -149.1875 C 565.609375 -127.21875 529.859375 -106.847656 489.515625 -88.078125 C 449.171875 -69.304688 408.628906 -53.328125 367.890625 -40.140625 C 327.148438 -26.960938 287.40625 -16.773438 248.65625 -9.578125 C 209.90625 -2.390625 176.550781 0.800781 148.59375 0 C 140.601562 0 133.8125 -2.796875 128.21875 -8.390625 C 122.625 -13.984375 121.425781 -23.171875 124.625 -35.953125 Z M 124.625 -35.953125 "/></g></g></g><g fill="#ffffff" fill-opacity="1"><g transform="translate(1087.318413, 1310.934587)"><g><path d="M 389.359375 -40.828125 C 395.273438 -40.035156 399.515625 -37.960938 402.078125 -34.609375 C 404.640625 -31.265625 405.921875 -27.617188 405.921875 -23.671875 C 405.921875 -19.722656 404.929688 -15.773438 402.953125 -11.828125 C 400.984375 -7.890625 398.222656 -5.128906 394.671875 -3.546875 C 335.898438 -3.148438 286.296875 -2.65625 245.859375 -2.0625 C 205.421875 -1.476562 171.988281 -1.085938 145.5625 -0.890625 C 119.132812 -0.691406 98.71875 -0.492188 84.3125 -0.296875 C 69.914062 -0.0976562 59.363281 0 52.65625 0 C 45.957031 0 41.914062 0 40.53125 0 C 39.15625 0 38.46875 0 38.46875 0 C 35.695312 0 33.226562 -1.378906 31.0625 -4.140625 C 28.894531 -6.898438 27.117188 -10.253906 25.734375 -14.203125 C 24.359375 -18.148438 23.472656 -22.390625 23.078125 -26.921875 C 22.679688 -31.460938 22.878906 -35.503906 23.671875 -39.046875 Z M 389.359375 -40.828125 "/></g></g></g></svg>